<?xml version="1.0" encoding="UTF-8" standalone="no"?>
<!-- Created with Inkscape (http://www.inkscape.org/) -->

<svg
   xmlns:dc="http://purl.org/dc/elements/1.1/"
   xmlns:cc="http://creativecommons.org/ns#"
   xmlns:rdf="http://www.w3.org/1999/02/22-rdf-syntax-ns#"
   xmlns:svg="http://www.w3.org/2000/svg"
   xmlns="http://www.w3.org/2000/svg"
   xmlns:sodipodi="http://sodipodi.sourceforge.net/DTD/sodipodi-0.dtd"
   xmlns:inkscape="http://www.inkscape.org/namespaces/inkscape"
   width="32px"
   height="32px"
   id="svg10554"
   version="1.1"
   inkscape:version="0.48.4 r9939"
   sodipodi:docname="gene-graph-hive-on.svg">
  <defs
     id="defs10556" />
  <sodipodi:namedview
     id="base"
     pagecolor="#ffffff"
     bordercolor="#666666"
     borderopacity="1.0"
     inkscape:pageopacity="0.0"
     inkscape:pageshadow="2"
     inkscape:zoom="20.086252"
     inkscape:cx="15.9198"
     inkscape:cy="16.313508"
     inkscape:current-layer="layer1"
     showgrid="true"
     inkscape:grid-bbox="true"
     inkscape:document-units="px"
     inkscape:window-width="1920"
     inkscape:window-height="1056"
     inkscape:window-x="0"
     inkscape:window-y="367"
     inkscape:window-maximized="1" />
  <metadata
     id="metadata10559">
    <rdf:RDF>
      <cc:Work
         rdf:about="">
        <dc:format>image/svg+xml</dc:format>
        <dc:type
           rdf:resource="http://purl.org/dc/dcmitype/StillImage" />
        <dc:title></dc:title>
      </cc:Work>
    </rdf:RDF>
  </metadata>
  <g
     id="layer1"
     inkscape:label="Layer 1"
     inkscape:groupmode="layer">
    <path
       style="font-size:medium;font-style:normal;font-variant:normal;font-weight:normal;font-stretch:normal;text-indent:0;text-align:start;text-decoration:none;line-height:normal;letter-spacing:normal;word-spacing:normal;text-transform:none;direction:ltr;block-progression:tb;writing-mode:lr-tb;text-anchor:start;baseline-shift:baseline;color:#000000;fill:#333333;fill-opacity:1;stroke:none;stroke-width:1px;marker:none;visibility:visible;display:inline;overflow:visible;enable-background:accumulate;font-family:Sans;-inkscape-font-specification:Sans"
       d="m 3.7752027,24.205208 a 0.50005,0.50005 0 0 0 -0.1875,0.90625 c 0,0 12.9802393,8.50749 24.7500003,0 a 0.50005,0.50005 0 1 0 -0.5625,-0.8125 c -11.230239,8.11751 -23.6250003,0 -23.6250003,0 a 0.50005,0.50005 0 0 0 -0.375,-0.09375 z"
       id="path11267"
       inkscape:connector-curvature="0" />
    <path
       style="font-size:medium;font-style:normal;font-variant:normal;font-weight:normal;font-stretch:normal;text-indent:0;text-align:start;text-decoration:none;line-height:normal;letter-spacing:normal;word-spacing:normal;text-transform:none;direction:ltr;block-progression:tb;writing-mode:lr-tb;text-anchor:start;baseline-shift:baseline;color:#000000;fill:#333333;fill-opacity:1;stroke:none;stroke-width:1px;marker:none;visibility:visible;display:inline;overflow:visible;enable-background:accumulate;font-family:Sans;-inkscape-font-specification:Sans"
       d="m 15.900203,3.2677076 a 0.50005,0.50005 0 0 0 -0.09375,0.03125 c 0,0 -3.168824,1.2203375 -6.3125003,4.5 -3.1436765,3.2796624 -6.2817364,8.6547864 -6.25,16.9062504 a 0.50005,0.50005 0 1 0 1,0 C 4.2131887,16.706672 7.2157542,11.613046 10.212703,8.4864576 c 2.996949,-3.1265876 5.96875,-4.25 5.96875,-4.25 a 0.50437539,0.50437539 0 1 0 -0.28125,-0.96875 z"
       id="path11269"
       inkscape:connector-curvature="0" />
    <path
       style="font-size:medium;font-style:normal;font-variant:normal;font-weight:normal;font-stretch:normal;text-indent:0;text-align:start;text-decoration:none;line-height:normal;letter-spacing:normal;word-spacing:normal;text-transform:none;direction:ltr;block-progression:tb;writing-mode:lr-tb;text-anchor:start;baseline-shift:baseline;color:#000000;fill:#333333;fill-opacity:1;stroke:none;stroke-width:1px;marker:none;visibility:visible;display:inline;overflow:visible;enable-background:accumulate;font-family:Sans;-inkscape-font-specification:Sans"
       d="m 15.962703,3.2052076 a 0.50005,0.50005 0 0 0 -0.09375,0.9375 c 6.754978,3.0167867 9.69691,8.1425844 10.96875,12.5312504 1.27184,4.388666 0.84375,8 0.84375,8 a 0.50389111,0.50389111 0 1 0 1,0.125 c 0,0 0.454117,-3.819941 -0.875,-8.40625 C 26.477336,11.806399 23.317575,6.3815948 16.275203,3.2364576 a 0.50005,0.50005 0 0 0 -0.3125,-0.03125 z"
       id="path11247"
       inkscape:connector-curvature="0" />
    <path
       style="font-size:medium;font-style:normal;font-variant:normal;font-weight:normal;font-stretch:normal;text-indent:0;text-align:start;text-decoration:none;line-height:normal;letter-spacing:normal;word-spacing:normal;text-transform:none;direction:ltr;block-progression:tb;writing-mode:lr-tb;text-anchor:start;baseline-shift:baseline;color:#000000;fill:#333333;fill-opacity:1;stroke:none;stroke-width:1px;marker:none;visibility:visible;display:inline;overflow:visible;enable-background:accumulate;font-family:Sans;-inkscape-font-specification:Sans"
       d="m 15.900203,7.2677076 a 0.50005,0.50005 0 0 0 -0.125,0.9375 c 8.971359,5.3131344 8.4375,14.5000004 8.4375,14.5000004 a 0.50024408,0.50024408 0 1 0 1,0.03125 c 0,0 0.518859,-9.824389 -8.90625,-15.4062504 a 0.50005,0.50005 0 0 0 -0.40625,-0.0625 z"
       id="path11249"
       inkscape:connector-curvature="0" />
    <path
       style="font-size:medium;font-style:normal;font-variant:normal;font-weight:normal;font-stretch:normal;text-indent:0;text-align:start;text-decoration:none;line-height:normal;letter-spacing:normal;word-spacing:normal;text-transform:none;direction:ltr;block-progression:tb;writing-mode:lr-tb;text-anchor:start;baseline-shift:baseline;color:#000000;fill:#333333;fill-opacity:1;stroke:none;stroke-width:1px;marker:none;visibility:visible;display:inline;overflow:visible;enable-background:accumulate;font-family:Sans;-inkscape-font-specification:Sans"
       d="m 15.900203,11.267708 a 0.50005,0.50005 0 0 0 -0.1875,0.9375 c 2.930578,1.680773 4.16991,3.821403 4.71875,5.53125 0.54884,1.709847 0.375,2.96875 0.375,2.96875 a 0.50389111,0.50389111 0 1 0 1,0.125 c 0,0 0.205852,-1.499316 -0.40625,-3.40625 -0.612102,-1.906934 -2.045458,-4.260446 -5.1875,-6.0625 a 0.50005,0.50005 0 0 0 -0.3125,-0.09375 z"
       id="path11251"
       inkscape:connector-curvature="0" />
    <path
       style="font-size:medium;font-style:normal;font-variant:normal;font-weight:normal;font-stretch:normal;text-indent:0;text-align:start;text-decoration:none;line-height:normal;letter-spacing:normal;word-spacing:normal;text-transform:none;direction:ltr;block-progression:tb;writing-mode:lr-tb;text-anchor:start;baseline-shift:baseline;color:#000000;fill:#333333;fill-opacity:1;stroke:none;stroke-width:1px;marker:none;visibility:visible;display:inline;overflow:visible;enable-background:accumulate;font-family:Sans;-inkscape-font-specification:Sans"
       d="m 15.993953,15.298958 a 0.50005,0.50005 0 0 0 -0.125,0.9375 c 1.519188,0.929629 1.40625,2.5 1.40625,2.5 a 0.50024408,0.50024408 0 1 0 1,0.03125 c 0,0 0.102352,-2.196259 -1.875,-3.40625 a 0.50005,0.50005 0 0 0 -0.40625,-0.0625 z"
       id="path11253"
       inkscape:connector-curvature="0" />
    <path
       style="font-size:medium;font-style:normal;font-variant:normal;font-weight:normal;font-stretch:normal;text-indent:0;text-align:start;text-decoration:none;line-height:normal;letter-spacing:normal;word-spacing:normal;text-transform:none;direction:ltr;block-progression:tb;writing-mode:lr-tb;text-anchor:start;baseline-shift:baseline;color:#000000;fill:#333333;fill-opacity:1;stroke:none;stroke-width:1px;marker:none;visibility:visible;display:inline;overflow:visible;enable-background:accumulate;font-family:Sans;-inkscape-font-specification:Sans"
       d="m 15.900203,3.1114576 a 0.50005,0.50005 0 0 0 -0.1875,0.9375 c 0,0 10.486005,6.2295344 8.5,18.7500004 a 0.50606671,0.50606671 0 1 0 1,0.15625 c 2.079859,-13.1121544 -9,-19.7812504 -9,-19.7812504 a 0.50005,0.50005 0 0 0 -0.3125,-0.0625 z"
       id="path11255"
       inkscape:connector-curvature="0" />
    <path
       style="font-size:medium;font-style:normal;font-variant:normal;font-weight:normal;font-stretch:normal;text-indent:0;text-align:start;text-decoration:none;line-height:normal;letter-spacing:normal;word-spacing:normal;text-transform:none;direction:ltr;block-progression:tb;writing-mode:lr-tb;text-anchor:start;baseline-shift:baseline;color:#000000;fill:#333333;fill-opacity:1;stroke:none;stroke-width:1px;marker:none;visibility:visible;display:inline;overflow:visible;enable-background:accumulate;font-family:Sans;-inkscape-font-specification:Sans"
       d="m 15.868953,7.2364576 a 0.50005,0.50005 0 0 0 -0.09375,0.0625 C 6.1446124,12.295962 6.7127027,22.830208 6.7127027,22.830208 a 0.50097561,0.50097561 0 1 0 1,-0.0625 c 0,0 -0.5764899,-9.868036 8.5312503,-14.5937504 a 0.5048592,0.5048592 0 1 0 -0.375,-0.9375 z"
       id="path11257"
       inkscape:connector-curvature="0" />
    <path
       style="font-size:medium;font-style:normal;font-variant:normal;font-weight:normal;font-stretch:normal;text-indent:0;text-align:start;text-decoration:none;line-height:normal;letter-spacing:normal;word-spacing:normal;text-transform:none;direction:ltr;block-progression:tb;writing-mode:lr-tb;text-anchor:start;baseline-shift:baseline;color:#000000;fill:#333333;fill-opacity:1;stroke:none;stroke-width:1px;marker:none;visibility:visible;display:inline;overflow:visible;enable-background:accumulate;font-family:Sans;-inkscape-font-specification:Sans"
       d="m 10.743953,20.298958 a 0.50005,0.50005 0 0 0 -0.25,0.875 c 0,0 5.673383,5.688615 14.3125,2.1875 a 0.5048592,0.5048592 0 1 0 -0.375,-0.9375 c -8.154669,3.304787 -13.25,-1.96875 -13.25,-1.96875 a 0.50005,0.50005 0 0 0 -0.4375,-0.15625 z"
       id="path11259"
       inkscape:connector-curvature="0" />
    <path
       style="font-size:medium;font-style:normal;font-variant:normal;font-weight:normal;font-stretch:normal;text-indent:0;text-align:start;text-decoration:none;line-height:normal;letter-spacing:normal;word-spacing:normal;text-transform:none;direction:ltr;block-progression:tb;writing-mode:lr-tb;text-anchor:start;baseline-shift:baseline;color:#000000;fill:#333333;fill-opacity:1;stroke:none;stroke-width:1px;marker:none;visibility:visible;display:inline;overflow:visible;enable-background:accumulate;font-family:Sans;-inkscape-font-specification:Sans"
       d="m 24.712703,22.236458 a 0.50005,0.50005 0 0 0 -0.3125,0.125 c -7.630484,5.840096 -16.8437503,0 -16.8437503,0 a 0.5118231,0.5118231 0 1 0 -0.53125,0.875 c 0,0 9.8089703,6.175368 18.0000003,-0.09375 a 0.50005,0.50005 0 0 0 -0.3125,-0.90625 z"
       id="path11261"
       inkscape:connector-curvature="0" />
    <path
       style="font-size:medium;font-style:normal;font-variant:normal;font-weight:normal;font-stretch:normal;text-indent:0;text-align:start;text-decoration:none;line-height:normal;letter-spacing:normal;word-spacing:normal;text-transform:none;direction:ltr;block-progression:tb;writing-mode:lr-tb;text-anchor:start;baseline-shift:baseline;color:#000000;fill:#333333;fill-opacity:1;stroke:none;stroke-width:1px;marker:none;visibility:visible;display:inline;overflow:visible;enable-background:accumulate;font-family:Sans;-inkscape-font-specification:Sans"
       d="m 15.900203,3.1427076 a 0.50005,0.50005 0 0 0 -0.40625,0.28125 c -2.647509,4.980907 -3.076533,8.8794364 -2.8125,11.5312504 0.264033,2.651814 1.25,4.09375 1.25,4.09375 a 0.50005,0.50005 0 1 0 0.8125,-0.5625 c 0,0 -0.8183,-1.172387 -1.0625,-3.625 -0.2442,-2.452613 0.120097,-6.1385514 2.6875,-10.9687504 a 0.50005,0.50005 0 0 0 -0.46875,-0.75 z"
       id="path11263"
       inkscape:connector-curvature="0" />
    <path
       style="font-size:medium;font-style:normal;font-variant:normal;font-weight:normal;font-stretch:normal;text-indent:0;text-align:start;text-decoration:none;line-height:normal;letter-spacing:normal;word-spacing:normal;text-transform:none;direction:ltr;block-progression:tb;writing-mode:lr-tb;text-anchor:start;baseline-shift:baseline;color:#000000;fill:#333333;fill-opacity:1;stroke:none;stroke-width:1px;marker:none;visibility:visible;display:inline;overflow:visible;enable-background:accumulate;font-family:Sans;-inkscape-font-specification:Sans"
       d="m 16.087703,11.236458 a 0.50005,0.50005 0 0 0 -0.125,0.03125 c -5.775469,1.782274 -8.938138,5.130531 -10.6250003,8.03125 -1.6868623,2.900719 -1.9375,5.40625 -1.9375,5.40625 a 0.50219246,0.50219246 0 1 0 1,0.09375 c 0,0 0.1977434,-2.277011 1.78125,-5 1.5835066,-2.722989 4.5242613,-5.853434 10.0625003,-7.5625 a 0.50606671,0.50606671 0 1 0 -0.15625,-1 z"
       id="path11265"
       inkscape:connector-curvature="0" />
    <path
       sodipodi:type="arc"
       style="color:#000000;fill:#333333;fill-opacity:1;fill-rule:nonzero;stroke:none;stroke-width:1;marker:none;visibility:visible;display:inline;overflow:visible;enable-background:accumulate"
       id="path10566"
       sodipodi:cx="18.150883"
       sodipodi:cy="15.992394"
       sodipodi:rx="3.8177135"
       sodipodi:ry="3.8177135"
       d="m 21.968596,15.992394 a 3.8177135,3.8177135 0 1 1 -7.635427,0 3.8177135,3.8177135 0 1 1 7.635427,0 z"
       transform="matrix(0.13450292,0,0,0.13450292,13.615106,13.608913)"
       inkscape:transform-center-y="-2.0103043" />
    <path
       sodipodi:type="arc"
       style="color:#000000;fill:#333333;fill-opacity:1;fill-rule:nonzero;stroke:none;stroke-width:1;marker:none;visibility:visible;display:inline;overflow:visible;enable-background:accumulate"
       id="path10566-4"
       sodipodi:cx="18.150883"
       sodipodi:cy="15.992394"
       sodipodi:rx="3.8177135"
       sodipodi:ry="3.8177135"
       d="m 21.968596,15.992394 a 3.8177135,3.8177135 0 1 1 -7.635427,0 3.8177135,3.8177135 0 1 1 7.635427,0 z"
       transform="matrix(0.13450292,0,0,0.13450292,13.615106,5.6089125)"
       inkscape:transform-center-y="-10.010304" />
    <path
       sodipodi:type="arc"
       style="color:#000000;fill:#333333;fill-opacity:1;fill-rule:nonzero;stroke:none;stroke-width:1;marker:none;visibility:visible;display:inline;overflow:visible;enable-background:accumulate"
       id="path10566-8"
       sodipodi:cx="18.150883"
       sodipodi:cy="15.992394"
       sodipodi:rx="3.8177135"
       sodipodi:ry="3.8177135"
       d="m 21.968596,15.992394 a 3.8177135,3.8177135 0 1 1 -7.635427,0 3.8177135,3.8177135 0 1 1 7.635427,0 z"
       transform="matrix(0.13450292,0,0,0.13450292,13.615106,9.6089126)"
       inkscape:transform-center-y="-6.0103043" />
    <path
       sodipodi:type="arc"
       style="color:#000000;fill:#333333;fill-opacity:1;fill-rule:nonzero;stroke:none;stroke-width:1;marker:none;visibility:visible;display:inline;overflow:visible;enable-background:accumulate"
       id="path10566-5"
       sodipodi:cx="18.150883"
       sodipodi:cy="15.992394"
       sodipodi:rx="3.8177135"
       sodipodi:ry="3.8177135"
       d="m 21.968596,15.992394 a 3.8177135,3.8177135 0 1 1 -7.635427,0 3.8177135,3.8177135 0 1 1 7.635427,0 z"
       transform="matrix(0.13450292,0,0,0.13450292,13.615106,1.6089125)"
       inkscape:transform-center-y="-14.010304" />
    <path
       sodipodi:type="arc"
       style="color:#000000;fill:#333333;fill-opacity:1;fill-rule:nonzero;stroke:none;stroke-width:1;marker:none;visibility:visible;display:inline;overflow:visible;enable-background:accumulate"
       id="path10566-45"
       sodipodi:cx="18.150883"
       sodipodi:cy="15.992394"
       sodipodi:rx="3.8177135"
       sodipodi:ry="3.8177135"
       d="m 21.968596,15.992394 a 3.8177135,3.8177135 0 1 1 -7.635427,0 3.8177135,3.8177135 0 1 1 7.635427,0 z"
       transform="matrix(0.13450292,0,0,0.13450292,13.615106,13.608913)"
       inkscape:transform-center-y="-2.0103043" />
    <path
       sodipodi:type="arc"
       style="color:#000000;fill:#333333;fill-opacity:1;fill-rule:nonzero;stroke:none;stroke-width:1;marker:none;visibility:visible;display:inline;overflow:visible;enable-background:accumulate"
       id="path10566-4-7"
       sodipodi:cx="18.150883"
       sodipodi:cy="15.992394"
       sodipodi:rx="3.8177135"
       sodipodi:ry="3.8177135"
       d="m 21.968596,15.992394 a 3.8177135,3.8177135 0 1 1 -7.635427,0 3.8177135,3.8177135 0 1 1 7.635427,0 z"
       transform="matrix(0.13450292,0,0,0.13450292,13.615106,5.6089124)"
       inkscape:transform-center-y="-10.010304" />
    <path
       sodipodi:type="arc"
       style="color:#000000;fill:#333333;fill-opacity:1;fill-rule:nonzero;stroke:none;stroke-width:1;marker:none;visibility:visible;display:inline;overflow:visible;enable-background:accumulate"
       id="path10566-8-3"
       sodipodi:cx="18.150883"
       sodipodi:cy="15.992394"
       sodipodi:rx="3.8177135"
       sodipodi:ry="3.8177135"
       d="m 21.968596,15.992394 a 3.8177135,3.8177135 0 1 1 -7.635427,0 3.8177135,3.8177135 0 1 1 7.635427,0 z"
       transform="matrix(0.13450292,0,0,0.13450292,13.615106,9.6089126)"
       inkscape:transform-center-y="-6.0103044" />
    <path
       sodipodi:type="arc"
       style="color:#000000;fill:#333333;fill-opacity:1;fill-rule:nonzero;stroke:none;stroke-width:1;marker:none;visibility:visible;display:inline;overflow:visible;enable-background:accumulate"
       id="path10566-5-8"
       sodipodi:cx="18.150883"
       sodipodi:cy="15.992394"
       sodipodi:rx="3.8177135"
       sodipodi:ry="3.8177135"
       d="m 21.968596,15.992394 a 3.8177135,3.8177135 0 1 1 -7.635427,0 3.8177135,3.8177135 0 1 1 7.635427,0 z"
       transform="matrix(0.13450292,0,0,0.13450292,13.615106,1.6089124)"
       inkscape:transform-center-y="-14.010304" />
    <path
       sodipodi:type="arc"
       style="color:#000000;fill:#333333;fill-opacity:1;fill-rule:nonzero;stroke:none;stroke-width:1;marker:none;visibility:visible;display:inline;overflow:visible;enable-background:accumulate"
       id="path10566-6"
       sodipodi:cx="18.150883"
       sodipodi:cy="15.992394"
       sodipodi:rx="3.8177135"
       sodipodi:ry="3.8177135"
       d="m 21.968596,15.992394 a 3.8177135,3.8177135 0 1 1 -7.635427,0 3.8177135,3.8177135 0 1 1 7.635427,0 z"
       transform="matrix(-0.06725146,0.11648295,-0.11648295,-0.06725146,20.880942,17.736637)"
       inkscape:transform-center-y="1.0051524"
       inkscape:transform-center-x="-1.7409746" />
    <path
       sodipodi:type="arc"
       style="color:#000000;fill:#333333;fill-opacity:1;fill-rule:nonzero;stroke:none;stroke-width:1;marker:none;visibility:visible;display:inline;overflow:visible;enable-background:accumulate"
       id="path10566-4-0"
       sodipodi:cx="18.150883"
       sodipodi:cy="15.992394"
       sodipodi:rx="3.8177135"
       sodipodi:ry="3.8177135"
       d="m 21.968596,15.992394 a 3.8177135,3.8177135 0 1 1 -7.635427,0 3.8177135,3.8177135 0 1 1 7.635427,0 z"
       transform="matrix(-0.06725146,0.11648295,-0.11648295,-0.06725146,27.809145,21.736637)"
       inkscape:transform-center-y="5.0051522"
       inkscape:transform-center-x="-8.6691773" />
    <path
       sodipodi:type="arc"
       style="color:#000000;fill:#333333;fill-opacity:1;fill-rule:nonzero;stroke:none;stroke-width:1;marker:none;visibility:visible;display:inline;overflow:visible;enable-background:accumulate"
       id="path10566-8-9"
       sodipodi:cx="18.150883"
       sodipodi:cy="15.992394"
       sodipodi:rx="3.8177135"
       sodipodi:ry="3.8177135"
       d="m 21.968596,15.992394 a 3.8177135,3.8177135 0 1 1 -7.635427,0 3.8177135,3.8177135 0 1 1 7.635427,0 z"
       transform="matrix(-0.06725146,0.11648295,-0.11648295,-0.06725146,24.345044,19.736637)"
       inkscape:transform-center-y="3.0051524"
       inkscape:transform-center-x="-5.2050766" />
    <path
       sodipodi:type="arc"
       style="color:#000000;fill:#333333;fill-opacity:1;fill-rule:nonzero;stroke:none;stroke-width:1;marker:none;visibility:visible;display:inline;overflow:visible;enable-background:accumulate"
       id="path10566-5-89"
       sodipodi:cx="18.150883"
       sodipodi:cy="15.992394"
       sodipodi:rx="3.8177135"
       sodipodi:ry="3.8177135"
       d="m 21.968596,15.992394 a 3.8177135,3.8177135 0 1 1 -7.635427,0 3.8177135,3.8177135 0 1 1 7.635427,0 z"
       transform="matrix(-0.06725146,0.11648295,-0.11648295,-0.06725146,31.273247,23.736637)"
       inkscape:transform-center-y="7.0051522"
       inkscape:transform-center-x="-12.133279" />
    <path
       sodipodi:type="arc"
       style="color:#000000;fill:#333333;fill-opacity:1;fill-rule:nonzero;stroke:none;stroke-width:1;marker:none;visibility:visible;display:inline;overflow:visible;enable-background:accumulate"
       id="path10566-45-7"
       sodipodi:cx="18.150883"
       sodipodi:cy="15.992394"
       sodipodi:rx="3.8177135"
       sodipodi:ry="3.8177135"
       d="m 21.968596,15.992394 a 3.8177135,3.8177135 0 1 1 -7.635427,0 3.8177135,3.8177135 0 1 1 7.635427,0 z"
       transform="matrix(-0.06725146,0.11648295,-0.11648295,-0.06725146,20.880942,17.736637)"
       inkscape:transform-center-y="1.0051524"
       inkscape:transform-center-x="-1.7409746" />
    <path
       sodipodi:type="arc"
       style="color:#000000;fill:#333333;fill-opacity:1;fill-rule:nonzero;stroke:none;stroke-width:1;marker:none;visibility:visible;display:inline;overflow:visible;enable-background:accumulate"
       id="path10566-4-7-6"
       sodipodi:cx="18.150883"
       sodipodi:cy="15.992394"
       sodipodi:rx="3.8177135"
       sodipodi:ry="3.8177135"
       d="m 21.968596,15.992394 a 3.8177135,3.8177135 0 1 1 -7.635427,0 3.8177135,3.8177135 0 1 1 7.635427,0 z"
       transform="matrix(-0.06725146,0.11648295,-0.11648295,-0.06725146,27.809145,21.736637)"
       inkscape:transform-center-y="5.0051522"
       inkscape:transform-center-x="-8.6691772" />
    <path
       sodipodi:type="arc"
       style="color:#000000;fill:#333333;fill-opacity:1;fill-rule:nonzero;stroke:none;stroke-width:1;marker:none;visibility:visible;display:inline;overflow:visible;enable-background:accumulate"
       id="path10566-8-3-9"
       sodipodi:cx="18.150883"
       sodipodi:cy="15.992394"
       sodipodi:rx="3.8177135"
       sodipodi:ry="3.8177135"
       d="m 21.968596,15.992394 a 3.8177135,3.8177135 0 1 1 -7.635427,0 3.8177135,3.8177135 0 1 1 7.635427,0 z"
       transform="matrix(-0.06725146,0.11648295,-0.11648295,-0.06725146,24.345044,19.736637)"
       inkscape:transform-center-y="3.0051524"
       inkscape:transform-center-x="-5.2050766" />
    <path
       sodipodi:type="arc"
       style="color:#000000;fill:#333333;fill-opacity:1;fill-rule:nonzero;stroke:none;stroke-width:1;marker:none;visibility:visible;display:inline;overflow:visible;enable-background:accumulate"
       id="path10566-5-8-8"
       sodipodi:cx="18.150883"
       sodipodi:cy="15.992394"
       sodipodi:rx="3.8177135"
       sodipodi:ry="3.8177135"
       d="m 21.968596,15.992394 a 3.8177135,3.8177135 0 1 1 -7.635427,0 3.8177135,3.8177135 0 1 1 7.635427,0 z"
       transform="matrix(-0.06725146,0.11648295,-0.11648295,-0.06725146,31.273247,23.736637)"
       inkscape:transform-center-y="7.0051522"
       inkscape:transform-center-x="-12.133279" />
    <path
       sodipodi:type="arc"
       style="color:#000000;fill:#333333;fill-opacity:1;fill-rule:nonzero;stroke:none;stroke-width:1;marker:none;visibility:visible;display:inline;overflow:visible;enable-background:accumulate"
       id="path10566-6-0"
       sodipodi:cx="18.150883"
       sodipodi:cy="15.992394"
       sodipodi:rx="3.8177135"
       sodipodi:ry="3.8177135"
       d="m 21.968596,15.992394 a 3.8177135,3.8177135 0 1 1 -7.635427,0 3.8177135,3.8177135 0 1 1 7.635427,0 z"
       transform="matrix(-0.06725146,-0.11648295,0.11648295,-0.06725146,13.67331,21.965173)"
       inkscape:transform-center-y="1.0051516"
       inkscape:transform-center-x="1.7409748" />
    <path
       sodipodi:type="arc"
       style="color:#000000;fill:#333333;fill-opacity:1;fill-rule:nonzero;stroke:none;stroke-width:1;marker:none;visibility:visible;display:inline;overflow:visible;enable-background:accumulate"
       id="path10566-4-0-7"
       sodipodi:cx="18.150883"
       sodipodi:cy="15.992394"
       sodipodi:rx="3.8177135"
       sodipodi:ry="3.8177135"
       d="m 21.968596,15.992394 a 3.8177135,3.8177135 0 1 1 -7.635427,0 3.8177135,3.8177135 0 1 1 7.635427,0 z"
       transform="matrix(-0.06725146,-0.11648295,0.11648295,-0.06725146,6.745107,25.965173)"
       inkscape:transform-center-y="5.0051515"
       inkscape:transform-center-x="8.6691775" />
    <path
       sodipodi:type="arc"
       style="color:#000000;fill:#333333;fill-opacity:1;fill-rule:nonzero;stroke:none;stroke-width:1;marker:none;visibility:visible;display:inline;overflow:visible;enable-background:accumulate"
       id="path10566-8-9-6"
       sodipodi:cx="18.150883"
       sodipodi:cy="15.992394"
       sodipodi:rx="3.8177135"
       sodipodi:ry="3.8177135"
       d="m 21.968596,15.992394 a 3.8177135,3.8177135 0 1 1 -7.635427,0 3.8177135,3.8177135 0 1 1 7.635427,0 z"
       transform="matrix(-0.06725146,-0.11648295,0.11648295,-0.06725146,10.209208,23.965174)"
       inkscape:transform-center-y="3.0051526"
       inkscape:transform-center-x="5.2050768" />
    <path
       sodipodi:type="arc"
       style="color:#000000;fill:#333333;fill-opacity:1;fill-rule:nonzero;stroke:none;stroke-width:1;marker:none;visibility:visible;display:inline;overflow:visible;enable-background:accumulate"
       id="path10566-5-89-1"
       sodipodi:cx="18.150883"
       sodipodi:cy="15.992394"
       sodipodi:rx="3.8177135"
       sodipodi:ry="3.8177135"
       d="m 21.968596,15.992394 a 3.8177135,3.8177135 0 1 1 -7.635427,0 3.8177135,3.8177135 0 1 1 7.635427,0 z"
       transform="matrix(-0.06725146,-0.11648295,0.11648295,-0.06725146,3.2810052,27.965174)"
       inkscape:transform-center-y="7.0051522"
       inkscape:transform-center-x="12.133279" />
    <path
       sodipodi:type="arc"
       style="color:#000000;fill:#333333;fill-opacity:1;fill-rule:nonzero;stroke:none;stroke-width:1;marker:none;visibility:visible;display:inline;overflow:visible;enable-background:accumulate"
       id="path10566-45-7-4"
       sodipodi:cx="18.150883"
       sodipodi:cy="15.992394"
       sodipodi:rx="3.8177135"
       sodipodi:ry="3.8177135"
       d="m 21.968596,15.992394 a 3.8177135,3.8177135 0 1 1 -7.635427,0 3.8177135,3.8177135 0 1 1 7.635427,0 z"
       transform="matrix(-0.06725146,-0.11648295,0.11648295,-0.06725146,13.67331,21.965173)"
       inkscape:transform-center-y="1.0051516"
       inkscape:transform-center-x="1.7409748" />
    <path
       sodipodi:type="arc"
       style="color:#000000;fill:#333333;fill-opacity:1;fill-rule:nonzero;stroke:none;stroke-width:1;marker:none;visibility:visible;display:inline;overflow:visible;enable-background:accumulate"
       id="path10566-4-7-6-5"
       sodipodi:cx="18.150883"
       sodipodi:cy="15.992394"
       sodipodi:rx="3.8177135"
       sodipodi:ry="3.8177135"
       d="m 21.968596,15.992394 a 3.8177135,3.8177135 0 1 1 -7.635427,0 3.8177135,3.8177135 0 1 1 7.635427,0 z"
       transform="matrix(-0.06725146,-0.11648295,0.11648295,-0.06725146,6.745107,25.965173)"
       inkscape:transform-center-y="5.0051514"
       inkscape:transform-center-x="8.6691774" />
    <path
       sodipodi:type="arc"
       style="color:#000000;fill:#333333;fill-opacity:1;fill-rule:nonzero;stroke:none;stroke-width:1;marker:none;visibility:visible;display:inline;overflow:visible;enable-background:accumulate"
       id="path10566-8-3-9-9"
       sodipodi:cx="18.150883"
       sodipodi:cy="15.992394"
       sodipodi:rx="3.8177135"
       sodipodi:ry="3.8177135"
       d="m 21.968596,15.992394 a 3.8177135,3.8177135 0 1 1 -7.635427,0 3.8177135,3.8177135 0 1 1 7.635427,0 z"
       transform="matrix(-0.06725146,-0.11648295,0.11648295,-0.06725146,10.209208,23.965174)"
       inkscape:transform-center-y="3.0051526"
       inkscape:transform-center-x="5.2050768" />
    <path
       sodipodi:type="arc"
       style="color:#000000;fill:#333333;fill-opacity:1;fill-rule:nonzero;stroke:none;stroke-width:1;marker:none;visibility:visible;display:inline;overflow:visible;enable-background:accumulate"
       id="path10566-5-8-8-3"
       sodipodi:cx="18.150883"
       sodipodi:cy="15.992394"
       sodipodi:rx="3.8177135"
       sodipodi:ry="3.8177135"
       d="m 21.968596,15.992394 a 3.8177135,3.8177135 0 1 1 -7.635427,0 3.8177135,3.8177135 0 1 1 7.635427,0 z"
       transform="matrix(-0.06725146,-0.11648295,0.11648295,-0.06725146,3.2810052,27.965174)"
       inkscape:transform-center-y="7.0051522"
       inkscape:transform-center-x="12.133279" />
  </g>
</svg>
