<?xml version="1.0" encoding="utf-8"?>
<!-- Generator: Adobe Illustrator 16.0.4, SVG Export Plug-In . SVG Version: 6.00 Build 0)  -->
<!DOCTYPE svg PUBLIC "-//W3C//DTD SVG 1.1//EN" "http://www.w3.org/Graphics/SVG/1.1/DTD/svg11.dtd">
<svg version="1.1" id="Layer_1" xmlns="http://www.w3.org/2000/svg" xmlns:xlink="http://www.w3.org/1999/xlink" x="0px" y="0px"
	 width="814.532px" height="871.507px" viewBox="0 0 814.532 871.507" enable-background="new 0 0 814.532 871.507"
	 xml:space="preserve">
<g>
	<rect x="240.079" y="44.293" fill="#FFFFFF" width="335.237" height="388.485"/>
	
		<line fill="none" stroke="#FAFAFA" stroke-width="0.9816" stroke-linejoin="round" stroke-miterlimit="10" x1="240.079" y1="354.639" x2="575.325" y2="354.639"/>
	
		<line fill="none" stroke="#FAFAFA" stroke-width="0.9816" stroke-linejoin="round" stroke-miterlimit="10" x1="240.079" y1="232.374" x2="575.325" y2="232.374"/>
	
		<line fill="none" stroke="#FAFAFA" stroke-width="0.9816" stroke-linejoin="round" stroke-miterlimit="10" x1="240.079" y1="110.107" x2="575.325" y2="110.107"/>
	
		<line fill="none" stroke="#E5E5E5" stroke-width="0.3982" stroke-linejoin="round" stroke-miterlimit="10" x1="240.079" y1="415.767" x2="575.325" y2="415.767"/>
	
		<line fill="none" stroke="#E5E5E5" stroke-width="0.3982" stroke-linejoin="round" stroke-miterlimit="10" x1="240.079" y1="293.501" x2="575.325" y2="293.501"/>
	
		<line fill="none" stroke="#E5E5E5" stroke-width="0.3982" stroke-linejoin="round" stroke-miterlimit="10" x1="240.079" y1="171.235" x2="575.325" y2="171.235"/>
	
		<line fill="none" stroke="#E5E5E5" stroke-width="0.3982" stroke-linejoin="round" stroke-miterlimit="10" x1="240.079" y1="48.97" x2="575.325" y2="48.97"/>
	
		<line fill="none" stroke="#E5E5E5" stroke-width="0.3982" stroke-linejoin="round" stroke-miterlimit="10" x1="331.507" y1="432.778" x2="331.507" y2="44.285"/>
	
		<line fill="none" stroke="#E5E5E5" stroke-width="0.3982" stroke-linejoin="round" stroke-miterlimit="10" x1="483.896" y1="432.778" x2="483.896" y2="44.285"/>
	<polygon fill="#EE0000" points="262.943,415.118 264.721,413.451 269.425,411.775 275.944,410.108 283.112,408.442 
		289.927,406.774 295.836,405.099 300.707,403.432 304.615,401.765 307.717,400.088 310.162,398.422 312.079,396.755 
		313.569,395.087 314.765,393.412 315.792,391.745 316.765,390.079 317.746,388.411 318.709,386.735 319.607,385.068 
		320.413,383.401 321.108,381.734 321.746,380.059 322.376,378.392 323.024,376.725 323.69,375.049 324.34,373.382 324.914,371.715 
		325.404,370.049 325.793,368.372 326.099,366.704 326.349,365.038 326.543,363.37 326.673,361.694 326.757,360.028 
		326.803,358.361 326.83,356.693 326.867,355.019 326.951,353.352 327.062,351.685 327.192,350.008 327.303,348.341 
		327.387,346.675 327.441,345.008 327.479,343.331 327.517,341.665 327.534,339.998 327.543,338.331 327.534,336.655 
		327.517,334.988 327.497,333.321 327.525,331.654 327.627,329.978 327.821,328.311 328.081,326.645 328.396,324.977 
		328.72,323.301 329.016,321.635 329.266,319.968 329.47,318.291 329.627,316.625 329.747,314.958 329.84,313.292 329.905,311.615 
		329.951,309.948 329.979,308.281 329.998,306.614 330.025,304.938 330.062,303.271 330.1,301.604 330.137,299.937 330.173,298.261 
		330.201,296.594 330.238,294.927 330.285,293.251 330.35,291.584 330.433,289.917 330.507,288.251 330.59,286.574 330.646,284.907 
		330.691,283.241 330.711,281.574 330.702,279.897 330.665,278.231 330.609,276.564 330.534,274.897 330.46,273.221 
		330.378,271.554 330.312,269.888 330.257,268.211 330.22,266.544 330.192,264.877 330.155,263.21 330.118,261.534 330.091,259.868 
		330.053,258.201 330.044,256.534 330.034,254.857 330.044,253.19 330.053,251.523 330.062,249.857 330.081,248.181 
		330.108,246.514 330.164,244.847 330.257,243.17 330.378,241.503 330.525,239.837 330.683,238.17 330.821,236.493 330.923,234.827 
		330.989,233.16 330.998,231.493 330.961,229.817 330.887,228.15 330.784,226.484 330.674,224.816 330.581,223.14 330.517,221.474 
		330.497,219.807 330.534,218.131 330.618,216.464 330.729,214.797 330.851,213.13 330.961,211.454 331.045,209.787 331.1,208.12 
		331.128,206.453 331.128,204.777 331.1,203.11 331.054,201.443 330.998,199.776 330.933,198.1 330.868,196.434 330.804,194.767 
		330.738,193.09 330.665,191.423 330.581,189.756 330.488,188.09 330.414,186.414 330.35,184.747 330.303,183.08 330.275,181.413 
		330.266,179.737 330.266,178.07 330.275,176.403 330.285,174.736 330.312,173.06 330.358,171.393 330.433,169.726 330.534,168.059 
		330.665,166.383 330.784,164.716 330.896,163.05 330.97,161.374 330.998,159.706 330.979,158.04 330.914,156.373 330.804,154.697 
		330.665,153.03 330.517,151.363 330.368,149.696 330.247,148.02 330.155,146.353 330.1,144.687 330.071,143.019 330.062,141.343 
		330.053,139.676 330.044,138.009 330.034,136.333 330.044,134.667 330.062,133 330.091,131.333 330.127,129.656 330.173,127.989 
		330.21,126.322 330.257,124.656 330.331,122.98 332.692,122.98 332.757,124.656 332.812,126.322 332.85,127.989 332.887,129.656 
		332.924,131.333 332.961,133 332.979,134.667 332.989,136.333 332.979,138.009 332.97,139.676 332.961,141.343 332.942,143.019 
		332.915,144.687 332.868,146.353 332.775,148.02 332.655,149.696 332.507,151.363 332.358,153.03 332.211,154.697 332.109,156.373 
		332.035,158.04 332.017,159.706 332.054,161.374 332.128,163.05 332.239,164.716 332.358,166.383 332.479,168.059 332.591,169.726 
		332.665,171.393 332.711,173.06 332.738,174.736 332.748,176.403 332.748,178.07 332.748,179.737 332.748,181.413 332.72,183.08 
		332.674,184.747 332.609,186.414 332.525,188.09 332.442,189.756 332.358,191.423 332.285,193.09 332.22,194.767 332.155,196.434 
		332.091,198.1 332.025,199.776 331.97,201.443 331.924,203.11 331.896,204.777 331.896,206.453 331.915,208.12 331.979,209.787 
		332.062,211.454 332.174,213.13 332.294,214.797 332.405,216.464 332.488,218.131 332.525,219.807 332.507,221.474 332.442,223.14 
		332.35,224.816 332.239,226.484 332.128,228.15 332.054,229.817 332.025,231.493 332.035,233.16 332.091,234.827 332.202,236.493 
		332.341,238.17 332.488,239.837 332.637,241.503 332.767,243.17 332.859,244.847 332.915,246.514 332.942,248.181 332.961,249.857 
		332.97,251.523 332.979,253.19 332.989,254.857 332.979,256.534 332.961,258.201 332.933,259.868 332.896,261.534 332.868,263.21 
		332.831,264.877 332.804,266.544 332.767,268.211 332.711,269.888 332.646,271.554 332.562,273.221 332.479,274.897 
		332.415,276.564 332.358,278.231 332.322,279.897 332.312,281.574 332.331,283.241 332.368,284.907 332.434,286.574 
		332.507,288.251 332.591,289.917 332.674,291.584 332.729,293.251 332.775,294.927 332.812,296.594 332.85,298.261 
		332.878,299.937 332.915,301.604 332.961,303.271 332.998,304.938 333.025,306.614 333.044,308.281 333.072,309.948 
		333.118,311.615 333.174,313.292 333.267,314.958 333.396,316.625 333.554,318.291 333.758,319.968 334.007,321.635 
		334.304,323.301 334.628,324.977 334.943,326.645 335.202,328.311 335.396,329.978 335.489,331.654 335.517,333.321 
		335.508,334.988 335.48,336.655 335.48,338.331 335.489,339.998 335.508,341.665 335.535,343.331 335.572,345.008 335.628,346.675 
		335.721,348.341 335.831,350.008 335.961,351.685 336.072,353.352 336.146,355.019 336.192,356.693 336.221,358.361 
		336.267,360.028 336.341,361.694 336.479,363.37 336.674,365.038 336.915,366.704 337.23,368.372 337.619,370.049 338.101,371.715 
		338.684,373.382 339.332,375.049 339.999,376.725 340.647,378.392 341.277,380.059 341.906,381.734 342.61,383.401 
		343.407,385.068 344.314,386.735 345.277,388.411 346.249,390.079 347.231,391.745 348.26,393.412 349.454,395.087 
		350.944,396.755 352.861,398.422 355.307,400.088 358.408,401.765 362.316,403.432 367.178,405.099 373.096,406.774 
		379.911,408.442 387.069,410.108 393.599,411.775 398.303,413.451 400.08,415.118 	"/>
	
		<polygon fill="none" stroke="#333333" stroke-width="0.9816" stroke-linecap="round" stroke-linejoin="round" stroke-miterlimit="10" points="
		262.943,415.118 264.721,413.451 269.425,411.775 275.944,410.108 283.112,408.442 289.927,406.774 295.836,405.099 
		300.707,403.432 304.615,401.765 307.717,400.088 310.162,398.422 312.079,396.755 313.569,395.087 314.765,393.412 
		315.792,391.745 316.765,390.079 317.746,388.411 318.709,386.735 319.607,385.068 320.413,383.401 321.108,381.734 
		321.746,380.059 322.376,378.392 323.024,376.725 323.69,375.049 324.34,373.382 324.914,371.715 325.404,370.049 325.793,368.372 
		326.099,366.704 326.349,365.038 326.543,363.37 326.673,361.694 326.757,360.028 326.803,358.361 326.83,356.693 326.867,355.019 
		326.951,353.352 327.062,351.685 327.192,350.008 327.303,348.341 327.387,346.675 327.441,345.008 327.479,343.331 
		327.517,341.665 327.534,339.998 327.543,338.331 327.534,336.655 327.517,334.988 327.497,333.321 327.525,331.654 
		327.627,329.978 327.821,328.311 328.081,326.645 328.396,324.977 328.72,323.301 329.016,321.635 329.266,319.968 329.47,318.291 
		329.627,316.625 329.747,314.958 329.84,313.292 329.905,311.615 329.951,309.948 329.979,308.281 329.998,306.614 
		330.025,304.938 330.062,303.271 330.1,301.604 330.137,299.937 330.173,298.261 330.201,296.594 330.238,294.927 330.285,293.251 
		330.35,291.584 330.433,289.917 330.507,288.251 330.59,286.574 330.646,284.907 330.691,283.241 330.711,281.574 330.702,279.897 
		330.665,278.231 330.609,276.564 330.534,274.897 330.46,273.221 330.378,271.554 330.312,269.888 330.257,268.211 330.22,266.544 
		330.192,264.877 330.155,263.21 330.118,261.534 330.091,259.868 330.053,258.201 330.044,256.534 330.034,254.857 330.044,253.19 
		330.053,251.523 330.062,249.857 330.081,248.181 330.108,246.514 330.164,244.847 330.257,243.17 330.378,241.503 
		330.525,239.837 330.683,238.17 330.821,236.493 330.923,234.827 330.989,233.16 330.998,231.493 330.961,229.817 330.887,228.15 
		330.784,226.484 330.674,224.816 330.581,223.14 330.517,221.474 330.497,219.807 330.534,218.131 330.618,216.464 
		330.729,214.797 330.851,213.13 330.961,211.454 331.045,209.787 331.1,208.12 331.128,206.453 331.128,204.777 331.1,203.11 
		331.054,201.443 330.998,199.776 330.933,198.1 330.868,196.434 330.804,194.767 330.738,193.09 330.665,191.423 330.581,189.756 
		330.488,188.09 330.414,186.414 330.35,184.747 330.303,183.08 330.275,181.413 330.266,179.737 330.266,178.07 330.275,176.403 
		330.285,174.736 330.312,173.06 330.358,171.393 330.433,169.726 330.534,168.059 330.665,166.383 330.784,164.716 330.896,163.05 
		330.97,161.374 330.998,159.706 330.979,158.04 330.914,156.373 330.804,154.697 330.665,153.03 330.517,151.363 330.368,149.696 
		330.247,148.02 330.155,146.353 330.1,144.687 330.071,143.019 330.062,141.343 330.053,139.676 330.044,138.009 330.034,136.333 
		330.044,134.667 330.062,133 330.091,131.333 330.127,129.656 330.173,127.989 330.21,126.322 330.257,124.656 330.331,122.98 
		332.692,122.98 332.757,124.656 332.812,126.322 332.85,127.989 332.887,129.656 332.924,131.333 332.961,133 332.979,134.667 
		332.989,136.333 332.979,138.009 332.97,139.676 332.961,141.343 332.942,143.019 332.915,144.687 332.868,146.353 332.775,148.02 
		332.655,149.696 332.507,151.363 332.358,153.03 332.211,154.697 332.109,156.373 332.035,158.04 332.017,159.706 332.054,161.374 
		332.128,163.05 332.239,164.716 332.358,166.383 332.479,168.059 332.591,169.726 332.665,171.393 332.711,173.06 332.738,174.736 
		332.748,176.403 332.748,178.07 332.748,179.737 332.748,181.413 332.72,183.08 332.674,184.747 332.609,186.414 332.525,188.09 
		332.442,189.756 332.358,191.423 332.285,193.09 332.22,194.767 332.155,196.434 332.091,198.1 332.025,199.776 331.97,201.443 
		331.924,203.11 331.896,204.777 331.896,206.453 331.915,208.12 331.979,209.787 332.062,211.454 332.174,213.13 332.294,214.797 
		332.405,216.464 332.488,218.131 332.525,219.807 332.507,221.474 332.442,223.14 332.35,224.816 332.239,226.484 332.128,228.15 
		332.054,229.817 332.025,231.493 332.035,233.16 332.091,234.827 332.202,236.493 332.341,238.17 332.488,239.837 332.637,241.503 
		332.767,243.17 332.859,244.847 332.915,246.514 332.942,248.181 332.961,249.857 332.97,251.523 332.979,253.19 332.989,254.857 
		332.979,256.534 332.961,258.201 332.933,259.868 332.896,261.534 332.868,263.21 332.831,264.877 332.804,266.544 
		332.767,268.211 332.711,269.888 332.646,271.554 332.562,273.221 332.479,274.897 332.415,276.564 332.358,278.231 
		332.322,279.897 332.312,281.574 332.331,283.241 332.368,284.907 332.434,286.574 332.507,288.251 332.591,289.917 
		332.674,291.584 332.729,293.251 332.775,294.927 332.812,296.594 332.85,298.261 332.878,299.937 332.915,301.604 
		332.961,303.271 332.998,304.938 333.025,306.614 333.044,308.281 333.072,309.948 333.118,311.615 333.174,313.292 
		333.267,314.958 333.396,316.625 333.554,318.291 333.758,319.968 334.007,321.635 334.304,323.301 334.628,324.977 
		334.943,326.645 335.202,328.311 335.396,329.978 335.489,331.654 335.517,333.321 335.508,334.988 335.48,336.655 335.48,338.331 
		335.489,339.998 335.508,341.665 335.535,343.331 335.572,345.008 335.628,346.675 335.721,348.341 335.831,350.008 
		335.961,351.685 336.072,353.352 336.146,355.019 336.192,356.693 336.221,358.361 336.267,360.028 336.341,361.694 
		336.479,363.37 336.674,365.038 336.915,366.704 337.23,368.372 337.619,370.049 338.101,371.715 338.684,373.382 339.332,375.049 
		339.999,376.725 340.647,378.392 341.277,380.059 341.906,381.734 342.61,383.401 343.407,385.068 344.314,386.735 
		345.277,388.411 346.249,390.079 347.231,391.745 348.26,393.412 349.454,395.087 350.944,396.755 352.861,398.422 
		355.307,400.088 358.408,401.765 362.316,403.432 367.178,405.099 373.096,406.774 379.911,408.442 387.069,410.108 
		393.599,411.775 398.303,413.451 400.08,415.118 	"/>
	<polygon fill="#7F7F7F" points="482.443,415.017 482.266,412.83 482.1,410.636 481.925,408.442 481.758,406.247 481.6,404.053 
		481.434,401.867 481.275,399.672 481.117,397.477 480.961,395.283 480.804,393.088 480.656,390.902 480.498,388.707 
		480.34,386.513 480.191,384.318 480.044,382.123 479.896,379.929 479.758,377.743 479.619,375.548 479.489,373.354 
		479.369,371.158 479.248,368.964 479.137,366.779 479.034,364.584 478.934,362.39 478.851,360.195 478.766,358 478.692,355.805 
		478.627,353.62 478.571,351.425 478.524,349.23 478.488,347.035 478.462,344.841 478.452,342.656 478.452,340.461 478.462,338.267 
		478.479,336.071 478.507,333.876 478.544,331.69 478.591,329.497 478.637,327.302 478.703,325.107 478.766,322.912 
		478.832,320.718 478.896,318.532 478.971,316.338 479.043,314.143 479.109,311.948 479.182,309.753 479.248,307.567 
		479.312,305.373 479.369,303.178 479.434,300.984 479.48,298.789 479.525,296.594 479.571,294.409 479.61,292.213 479.637,290.019 
		479.664,287.825 479.691,285.63 479.711,283.444 479.729,281.249 479.749,279.055 479.758,276.86 479.767,274.666 479.775,272.48 
		479.775,270.286 479.775,268.09 479.758,265.896 479.738,263.7 479.711,261.506 479.683,259.321 479.637,257.126 479.592,254.931 
		479.534,252.737 479.472,250.542 479.405,248.357 479.35,246.162 479.284,243.967 479.23,241.772 479.173,239.577 479.118,237.383 
		479.072,235.198 479.017,233.003 478.971,230.808 478.914,228.614 478.868,226.418 478.812,224.233 478.748,222.038 
		478.683,219.844 478.618,217.649 478.554,215.454 478.479,213.269 478.404,211.074 478.332,208.879 478.257,206.684 
		478.191,204.49 478.118,202.295 478.055,200.109 477.988,197.915 477.924,195.721 477.85,193.525 477.775,191.331 477.702,189.146 
		477.627,186.951 477.534,184.756 477.442,182.561 477.331,180.366 477.211,178.172 477.081,175.986 476.934,173.791 
		476.757,171.597 476.554,169.402 476.321,167.208 476.053,165.022 475.748,162.828 475.378,160.632 474.949,158.438 
		474.451,156.243 473.867,154.058 473.201,151.863 472.433,149.668 471.589,147.473 470.654,145.279 469.662,143.084 
		468.636,140.898 467.606,138.704 466.636,136.509 465.773,134.314 465.08,132.119 464.607,129.935 464.423,127.739 
		464.544,125.544 465.005,123.35 465.792,121.156 466.877,118.96 468.228,116.775 469.765,114.58 471.423,112.386 473.135,110.191 
		474.812,107.996 476.405,105.811 477.85,103.616 479.137,101.421 480.229,99.226 481.126,97.032 481.858,94.846 482.424,92.651 
		482.851,90.457 483.164,88.263 483.396,86.067 483.553,83.873 483.664,81.687 483.74,79.493 483.785,77.298 483.812,75.103 
		483.843,72.908 483.852,70.723 483.86,68.528 483.869,66.333 483.869,64.139 483.879,61.944 483.915,61.944 483.915,64.139 
		483.915,66.333 483.924,68.528 483.933,70.723 483.941,72.908 483.971,75.103 483.999,77.298 484.044,79.493 484.12,81.687 
		484.231,83.873 484.388,86.067 484.62,88.263 484.934,90.457 485.358,92.651 485.926,94.846 486.656,97.032 487.563,99.226 
		488.656,101.421 489.935,103.616 491.379,105.811 492.972,107.996 494.649,110.191 496.361,112.386 498.02,114.58 499.565,116.775 
		500.907,118.96 502.001,121.156 502.788,123.35 503.242,125.544 503.362,127.739 503.177,129.935 502.704,132.119 502.011,134.314 
		501.148,136.509 500.176,138.704 499.149,140.898 498.122,143.084 497.13,145.279 496.195,147.473 495.352,149.668 
		494.592,151.863 493.917,154.058 493.343,156.243 492.842,158.438 492.406,160.632 492.045,162.828 491.731,165.022 
		491.463,167.208 491.23,169.402 491.027,171.597 490.86,173.791 490.703,175.986 490.573,178.172 490.453,180.366 490.342,182.561 
		490.25,184.756 490.156,186.951 490.082,189.146 490.01,191.331 489.935,193.525 489.87,195.721 489.796,197.915 489.729,200.109 
		489.666,202.295 489.591,204.49 489.527,206.684 489.452,208.879 489.378,211.074 489.305,213.269 489.229,215.454 
		489.166,217.649 489.101,219.844 489.036,222.038 488.972,224.233 488.916,226.418 488.87,228.614 488.813,230.808 
		488.768,233.003 488.712,235.198 488.665,237.383 488.609,239.577 488.554,241.772 488.5,243.967 488.434,246.162 488.379,248.357 
		488.314,250.542 488.259,252.737 488.203,254.931 488.147,257.126 488.11,259.321 488.071,261.506 488.045,263.7 488.026,265.896 
		488.009,268.09 488.009,270.286 488.009,272.48 488.018,274.666 488.026,276.86 488.035,279.055 488.054,281.249 488.071,283.444 
		488.093,285.63 488.12,287.825 488.147,290.019 488.174,292.213 488.212,294.409 488.259,296.594 488.304,298.789 488.361,300.984 
		488.415,303.178 488.473,305.373 488.536,307.567 488.601,309.753 488.675,311.948 488.741,314.143 488.813,316.338 
		488.889,318.532 488.952,320.718 489.019,322.912 489.083,325.107 489.147,327.302 489.193,329.497 489.241,331.69 
		489.277,333.876 489.313,336.071 489.332,338.267 489.332,340.461 489.332,342.656 489.322,344.841 489.296,347.035 489.26,349.23 
		489.211,351.425 489.157,353.62 489.092,355.805 489.019,358 488.934,360.195 488.853,362.39 488.75,364.584 488.647,366.779 
		488.536,368.964 488.425,371.158 488.295,373.354 488.165,375.548 488.026,377.743 487.888,379.929 487.74,382.123 
		487.593,384.318 487.443,386.513 487.285,388.707 487.128,390.902 486.98,393.088 486.823,395.283 486.665,397.477 
		486.507,399.672 486.351,401.867 486.193,404.053 486.026,406.247 485.859,408.442 485.685,410.636 485.517,412.83 
		485.341,415.017 	"/>
	
		<polygon fill="none" stroke="#333333" stroke-width="0.9816" stroke-linecap="round" stroke-linejoin="round" stroke-miterlimit="10" points="
		482.443,415.017 482.266,412.83 482.1,410.636 481.925,408.442 481.758,406.247 481.6,404.053 481.434,401.867 481.275,399.672 
		481.117,397.477 480.961,395.283 480.804,393.088 480.656,390.902 480.498,388.707 480.34,386.513 480.191,384.318 
		480.044,382.123 479.896,379.929 479.758,377.743 479.619,375.548 479.489,373.354 479.369,371.158 479.248,368.964 
		479.137,366.779 479.034,364.584 478.934,362.39 478.851,360.195 478.766,358 478.692,355.805 478.627,353.62 478.571,351.425 
		478.524,349.23 478.488,347.035 478.462,344.841 478.452,342.656 478.452,340.461 478.462,338.267 478.479,336.071 
		478.507,333.876 478.544,331.69 478.591,329.497 478.637,327.302 478.703,325.107 478.766,322.912 478.832,320.718 
		478.896,318.532 478.971,316.338 479.043,314.143 479.109,311.948 479.182,309.753 479.248,307.567 479.312,305.373 
		479.369,303.178 479.434,300.984 479.48,298.789 479.525,296.594 479.571,294.409 479.61,292.213 479.637,290.019 479.664,287.825 
		479.691,285.63 479.711,283.444 479.729,281.249 479.749,279.055 479.758,276.86 479.767,274.666 479.775,272.48 479.775,270.286 
		479.775,268.09 479.758,265.896 479.738,263.7 479.711,261.506 479.683,259.321 479.637,257.126 479.592,254.931 479.534,252.737 
		479.472,250.542 479.405,248.357 479.35,246.162 479.284,243.967 479.23,241.772 479.173,239.577 479.118,237.383 479.072,235.198 
		479.017,233.003 478.971,230.808 478.914,228.614 478.868,226.418 478.812,224.233 478.748,222.038 478.683,219.844 
		478.618,217.649 478.554,215.454 478.479,213.269 478.404,211.074 478.332,208.879 478.257,206.684 478.191,204.49 
		478.118,202.295 478.055,200.109 477.988,197.915 477.924,195.721 477.85,193.525 477.775,191.331 477.702,189.146 
		477.627,186.951 477.534,184.756 477.442,182.561 477.331,180.366 477.211,178.172 477.081,175.986 476.934,173.791 
		476.757,171.597 476.554,169.402 476.321,167.208 476.053,165.022 475.748,162.828 475.378,160.632 474.949,158.438 
		474.451,156.243 473.867,154.058 473.201,151.863 472.433,149.668 471.589,147.473 470.654,145.279 469.662,143.084 
		468.636,140.898 467.606,138.704 466.636,136.509 465.773,134.314 465.08,132.119 464.607,129.935 464.423,127.739 
		464.544,125.544 465.005,123.35 465.792,121.156 466.877,118.96 468.228,116.775 469.765,114.58 471.423,112.386 473.135,110.191 
		474.812,107.996 476.405,105.811 477.85,103.616 479.137,101.421 480.229,99.226 481.126,97.032 481.858,94.846 482.424,92.651 
		482.851,90.457 483.164,88.263 483.396,86.067 483.553,83.873 483.664,81.687 483.74,79.493 483.785,77.298 483.812,75.103 
		483.843,72.908 483.852,70.723 483.86,68.528 483.869,66.333 483.869,64.139 483.879,61.944 483.915,61.944 483.915,64.139 
		483.915,66.333 483.924,68.528 483.933,70.723 483.941,72.908 483.971,75.103 483.999,77.298 484.044,79.493 484.12,81.687 
		484.231,83.873 484.388,86.067 484.62,88.263 484.934,90.457 485.358,92.651 485.926,94.846 486.656,97.032 487.563,99.226 
		488.656,101.421 489.935,103.616 491.379,105.811 492.972,107.996 494.649,110.191 496.361,112.386 498.02,114.58 499.565,116.775 
		500.907,118.96 502.001,121.156 502.788,123.35 503.242,125.544 503.362,127.739 503.177,129.935 502.704,132.119 502.011,134.314 
		501.148,136.509 500.176,138.704 499.149,140.898 498.122,143.084 497.13,145.279 496.195,147.473 495.352,149.668 
		494.592,151.863 493.917,154.058 493.343,156.243 492.842,158.438 492.406,160.632 492.045,162.828 491.731,165.022 
		491.463,167.208 491.23,169.402 491.027,171.597 490.86,173.791 490.703,175.986 490.573,178.172 490.453,180.366 490.342,182.561 
		490.25,184.756 490.156,186.951 490.082,189.146 490.01,191.331 489.935,193.525 489.87,195.721 489.796,197.915 489.729,200.109 
		489.666,202.295 489.591,204.49 489.527,206.684 489.452,208.879 489.378,211.074 489.305,213.269 489.229,215.454 
		489.166,217.649 489.101,219.844 489.036,222.038 488.972,224.233 488.916,226.418 488.87,228.614 488.813,230.808 
		488.768,233.003 488.712,235.198 488.665,237.383 488.609,239.577 488.554,241.772 488.5,243.967 488.434,246.162 488.379,248.357 
		488.314,250.542 488.259,252.737 488.203,254.931 488.147,257.126 488.11,259.321 488.071,261.506 488.045,263.7 488.026,265.896 
		488.009,268.09 488.009,270.286 488.009,272.48 488.018,274.666 488.026,276.86 488.035,279.055 488.054,281.249 488.071,283.444 
		488.093,285.63 488.12,287.825 488.147,290.019 488.174,292.213 488.212,294.409 488.259,296.594 488.304,298.789 488.361,300.984 
		488.415,303.178 488.473,305.373 488.536,307.567 488.601,309.753 488.675,311.948 488.741,314.143 488.813,316.338 
		488.889,318.532 488.952,320.718 489.019,322.912 489.083,325.107 489.147,327.302 489.193,329.497 489.241,331.69 
		489.277,333.876 489.313,336.071 489.332,338.267 489.332,340.461 489.332,342.656 489.322,344.841 489.296,347.035 489.26,349.23 
		489.211,351.425 489.157,353.62 489.092,355.805 489.019,358 488.934,360.195 488.853,362.39 488.75,364.584 488.647,366.779 
		488.536,368.964 488.425,371.158 488.295,373.354 488.165,375.548 488.026,377.743 487.888,379.929 487.74,382.123 
		487.593,384.318 487.443,386.513 487.285,388.707 487.128,390.902 486.98,393.088 486.823,395.283 486.665,397.477 
		486.507,399.672 486.351,401.867 486.193,404.053 486.026,406.247 485.859,408.442 485.685,410.636 485.517,412.83 
		485.341,415.017 	"/>
	
		<rect x="240.079" y="44.293" fill="none" stroke="#7F7F7F" stroke-width="0.9816" stroke-linecap="round" stroke-linejoin="round" stroke-miterlimit="10" width="335.237" height="388.485"/>
	<rect x="240.079" y="44.293" fill="none" width="335.237" height="388.485"/>
	<text transform="matrix(1 0 0 1 228.374 419.0918)" font-family="'Helvetica'" font-size="9.2604">0</text>
	<text transform="matrix(1 0 0 1 223.2246 296.8252)" font-family="'Helvetica'" font-size="9.2604">10</text>
	<text transform="matrix(1 0 0 1 223.2246 174.5596)" font-family="'Helvetica'" font-size="9.2604">20</text>
	<text transform="matrix(1 0 0 1 223.2246 52.2949)" font-family="'Helvetica'" font-size="9.2604">30</text>
	
		<line fill="none" stroke="#000000" stroke-width="0.9816" stroke-linejoin="round" stroke-miterlimit="10" x1="236.143" y1="415.767" x2="240.079" y2="415.767"/>
	
		<line fill="none" stroke="#000000" stroke-width="0.9816" stroke-linejoin="round" stroke-miterlimit="10" x1="236.143" y1="293.501" x2="240.079" y2="293.501"/>
	
		<line fill="none" stroke="#000000" stroke-width="0.9816" stroke-linejoin="round" stroke-miterlimit="10" x1="236.143" y1="171.235" x2="240.079" y2="171.235"/>
	
		<line fill="none" stroke="#000000" stroke-width="0.9816" stroke-linejoin="round" stroke-miterlimit="10" x1="236.143" y1="48.97" x2="240.079" y2="48.97"/>
	
		<line fill="none" stroke="#000000" stroke-width="0.9816" stroke-linejoin="round" stroke-miterlimit="10" x1="331.507" y1="436.713" x2="331.507" y2="432.778"/>
	
		<line fill="none" stroke="#000000" stroke-width="0.9816" stroke-linejoin="round" stroke-miterlimit="10" x1="483.896" y1="436.713" x2="483.896" y2="432.778"/>
	<text transform="matrix(1 0 0 1 315.8203 445.9834)" font-family="'Helvetica'" font-size="9.2604">lncRNA</text>
	<text transform="matrix(1 0 0 1 466.1348 445.9834)" font-family="'Helvetica'" font-size="9.2604">PCGene</text>
	<text transform="matrix(1 0 0 1 380.8848 457.2998)"><tspan x="0" y="0" font-family="'Helvetica'" font-size="11.1125">Gene </tspan><tspan x="30.271" y="0" font-family="'Helvetica'" font-size="11.1125" letter-spacing="-1">T</tspan><tspan x="35.737" y="0" font-family="'Helvetica'" font-size="11.1125">ype</tspan></text>
	<text transform="matrix(0 -1 1 0 219.8906 363.9443)"><tspan x="0" y="0" font-family="'Helvetica'" font-size="11.1125">Number of tissues with detecta</tspan><tspan x="151.939" y="0" font-family="'Helvetica'" font-size="11.1125">b</tspan><tspan x="157.897" y="0" font-family="'Helvetica'" font-size="11.1125">le gene </tspan><tspan x="197.442" y="0" font-family="'Helvetica'" font-size="11.1125">e</tspan><tspan x="203.29" y="0" font-family="'Helvetica'" font-size="11.1125">xpression</tspan></text>
	<rect x="584.612" y="213.269" fill="#FFFFFF" width="61.387" height="50.525"/>
	<text transform="matrix(1 0 0 1 588.5479 223.8525)"><tspan x="0" y="0" font-family="'Helvetica-Bold'" font-size="9.2604">g</tspan><tspan x="5.749" y="0" font-family="'Helvetica-Bold'" font-size="9.2604">ene type</tspan></text>
	<rect x="588.548" y="227.854" fill="#FFFFFF" width="16.003" height="16.002"/>
	
		<rect x="588.548" y="227.854" fill="none" stroke="#CCCCCC" stroke-width="0.9816" stroke-linecap="round" stroke-linejoin="round" stroke-miterlimit="10" width="16.003" height="16.002"/>
	<rect x="588.548" y="227.854" fill="#EE0000" width="16.003" height="16.002"/>
	
		<rect x="588.548" y="227.854" fill="none" stroke="#333333" stroke-width="0.6945" stroke-linecap="round" stroke-linejoin="round" stroke-miterlimit="10" width="16.003" height="16.002"/>
	
		<line fill="none" stroke="#333333" stroke-width="0.9816" stroke-linejoin="round" stroke-miterlimit="10" x1="588.548" y1="243.856" x2="604.551" y2="227.854"/>
	<rect x="588.548" y="243.856" fill="#FFFFFF" width="16.003" height="16.002"/>
	
		<rect x="588.548" y="243.856" fill="none" stroke="#CCCCCC" stroke-width="0.9816" stroke-linecap="round" stroke-linejoin="round" stroke-miterlimit="10" width="16.003" height="16.002"/>
	<rect x="588.548" y="243.856" fill="#7F7F7F" width="16.003" height="16.002"/>
	
		<rect x="588.548" y="243.856" fill="none" stroke="#333333" stroke-width="0.6945" stroke-linecap="round" stroke-linejoin="round" stroke-miterlimit="10" width="16.003" height="16.002"/>
	
		<line fill="none" stroke="#333333" stroke-width="0.9816" stroke-linejoin="round" stroke-miterlimit="10" x1="588.548" y1="259.858" x2="604.551" y2="243.856"/>
	<text transform="matrix(1 0 0 1 606.5518 239.1787)" font-family="'Helvetica'" font-size="9.2604">lncRNA</text>
	<text transform="matrix(1 0 0 1 606.5518 255.1816)" font-family="'Helvetica'" font-size="9.2604">PCGene</text>
	<text transform="matrix(1 0 0 1 234.4072 24.6982)"><tspan x="0" y="0" font-family="'Helvetica'" font-size="12.9646">Dist</tspan><tspan x="22.327" y="0" font-family="'Helvetica'" font-size="12.9646">r</tspan><tspan x="26.826" y="0" font-family="'Helvetica'" font-size="12.9646">i</tspan><tspan x="29.707" y="0" font-family="'Helvetica'" font-size="12.9646">b</tspan><tspan x="36.657" y="0" font-family="'Helvetica'" font-size="12.9646">utions of tissue counts with detecta</tspan><tspan x="237.723" y="0" font-family="'Helvetica'" font-size="12.9646">b</tspan><tspan x="244.673" y="0" font-family="'Helvetica'" font-size="12.9646">le gene </tspan><tspan x="290.809" y="0" font-family="'Helvetica'" font-size="12.9646">e</tspan><tspan x="297.63" y="0" font-family="'Helvetica'" font-size="12.9646">xpression</tspan></text>
	<text transform="matrix(1 0 0 1 319.9941 39.0986)" font-family="'Helvetica'" font-size="12.9646">for significant genes(FPKM &gt; 2)</text>
</g>
<g>
	<rect x="81.122" y="524.902" fill="#FFFFFF" width="698.554" height="243.616"/>
	
		<line fill="none" stroke="#FAFAFA" stroke-width="1.4383" stroke-linejoin="round" stroke-miterlimit="10" x1="81.122" y1="729.903" x2="779.676" y2="729.903"/>
	
		<line fill="none" stroke="#FAFAFA" stroke-width="1.4383" stroke-linejoin="round" stroke-miterlimit="10" x1="81.122" y1="674.812" x2="779.676" y2="674.812"/>
	
		<line fill="none" stroke="#FAFAFA" stroke-width="1.4383" stroke-linejoin="round" stroke-miterlimit="10" x1="81.122" y1="619.722" x2="779.676" y2="619.722"/>
	
		<line fill="none" stroke="#FAFAFA" stroke-width="1.4383" stroke-linejoin="round" stroke-miterlimit="10" x1="81.122" y1="564.617" x2="779.676" y2="564.617"/>
	
		<line fill="none" stroke="#E5E5E5" stroke-width="0.5835" stroke-linejoin="round" stroke-miterlimit="10" x1="81.122" y1="757.446" x2="779.676" y2="757.446"/>
	
		<line fill="none" stroke="#E5E5E5" stroke-width="0.5835" stroke-linejoin="round" stroke-miterlimit="10" x1="81.122" y1="702.357" x2="779.676" y2="702.357"/>
	
		<line fill="none" stroke="#E5E5E5" stroke-width="0.5835" stroke-linejoin="round" stroke-miterlimit="10" x1="81.122" y1="647.269" x2="779.676" y2="647.269"/>
	
		<line fill="none" stroke="#E5E5E5" stroke-width="0.5835" stroke-linejoin="round" stroke-miterlimit="10" x1="81.122" y1="592.164" x2="779.676" y2="592.164"/>
	
		<line fill="none" stroke="#E5E5E5" stroke-width="0.5835" stroke-linejoin="round" stroke-miterlimit="10" x1="81.122" y1="537.074" x2="779.676" y2="537.074"/>
	
		<line fill="none" stroke="#E5E5E5" stroke-width="0.5835" stroke-linejoin="round" stroke-miterlimit="10" x1="95.477" y1="768.519" x2="95.477" y2="524.902"/>
	
		<line fill="none" stroke="#E5E5E5" stroke-width="0.5835" stroke-linejoin="round" stroke-miterlimit="10" x1="119.4" y1="768.519" x2="119.4" y2="524.902"/>
	
		<line fill="none" stroke="#E5E5E5" stroke-width="0.5835" stroke-linejoin="round" stroke-miterlimit="10" x1="143.322" y1="768.519" x2="143.322" y2="524.902"/>
	
		<line fill="none" stroke="#E5E5E5" stroke-width="0.5835" stroke-linejoin="round" stroke-miterlimit="10" x1="167.244" y1="768.519" x2="167.244" y2="524.902"/>
	
		<line fill="none" stroke="#E5E5E5" stroke-width="0.5835" stroke-linejoin="round" stroke-miterlimit="10" x1="191.165" y1="768.519" x2="191.165" y2="524.902"/>
	
		<line fill="none" stroke="#E5E5E5" stroke-width="0.5835" stroke-linejoin="round" stroke-miterlimit="10" x1="215.087" y1="768.519" x2="215.087" y2="524.902"/>
	
		<line fill="none" stroke="#E5E5E5" stroke-width="0.5835" stroke-linejoin="round" stroke-miterlimit="10" x1="239.023" y1="768.519" x2="239.023" y2="524.902"/>
	
		<line fill="none" stroke="#E5E5E5" stroke-width="0.5835" stroke-linejoin="round" stroke-miterlimit="10" x1="262.945" y1="768.519" x2="262.945" y2="524.902"/>
	
		<line fill="none" stroke="#E5E5E5" stroke-width="0.5835" stroke-linejoin="round" stroke-miterlimit="10" x1="286.867" y1="768.519" x2="286.867" y2="524.902"/>
	
		<line fill="none" stroke="#E5E5E5" stroke-width="0.5835" stroke-linejoin="round" stroke-miterlimit="10" x1="310.79" y1="768.519" x2="310.79" y2="524.902"/>
	
		<line fill="none" stroke="#E5E5E5" stroke-width="0.5835" stroke-linejoin="round" stroke-miterlimit="10" x1="334.711" y1="768.519" x2="334.711" y2="524.902"/>
	
		<line fill="none" stroke="#E5E5E5" stroke-width="0.5835" stroke-linejoin="round" stroke-miterlimit="10" x1="358.633" y1="768.519" x2="358.633" y2="524.902"/>
	
		<line fill="none" stroke="#E5E5E5" stroke-width="0.5835" stroke-linejoin="round" stroke-miterlimit="10" x1="382.555" y1="768.519" x2="382.555" y2="524.902"/>
	
		<line fill="none" stroke="#E5E5E5" stroke-width="0.5835" stroke-linejoin="round" stroke-miterlimit="10" x1="406.477" y1="768.519" x2="406.477" y2="524.902"/>
	
		<line fill="none" stroke="#E5E5E5" stroke-width="0.5835" stroke-linejoin="round" stroke-miterlimit="10" x1="430.399" y1="768.519" x2="430.399" y2="524.902"/>
	
		<line fill="none" stroke="#E5E5E5" stroke-width="0.5835" stroke-linejoin="round" stroke-miterlimit="10" x1="454.321" y1="768.519" x2="454.321" y2="524.902"/>
	
		<line fill="none" stroke="#E5E5E5" stroke-width="0.5835" stroke-linejoin="round" stroke-miterlimit="10" x1="478.243" y1="768.519" x2="478.243" y2="524.902"/>
	
		<line fill="none" stroke="#E5E5E5" stroke-width="0.5835" stroke-linejoin="round" stroke-miterlimit="10" x1="502.164" y1="768.519" x2="502.164" y2="524.902"/>
	
		<line fill="none" stroke="#E5E5E5" stroke-width="0.5835" stroke-linejoin="round" stroke-miterlimit="10" x1="526.087" y1="768.519" x2="526.087" y2="524.902"/>
	
		<line fill="none" stroke="#E5E5E5" stroke-width="0.5835" stroke-linejoin="round" stroke-miterlimit="10" x1="550.009" y1="768.519" x2="550.009" y2="524.902"/>
	
		<line fill="none" stroke="#E5E5E5" stroke-width="0.5835" stroke-linejoin="round" stroke-miterlimit="10" x1="573.944" y1="768.519" x2="573.944" y2="524.902"/>
	
		<line fill="none" stroke="#E5E5E5" stroke-width="0.5835" stroke-linejoin="round" stroke-miterlimit="10" x1="597.867" y1="768.519" x2="597.867" y2="524.902"/>
	
		<line fill="none" stroke="#E5E5E5" stroke-width="0.5835" stroke-linejoin="round" stroke-miterlimit="10" x1="621.789" y1="768.519" x2="621.789" y2="524.902"/>
	
		<line fill="none" stroke="#E5E5E5" stroke-width="0.5835" stroke-linejoin="round" stroke-miterlimit="10" x1="645.71" y1="768.519" x2="645.71" y2="524.902"/>
	
		<line fill="none" stroke="#E5E5E5" stroke-width="0.5835" stroke-linejoin="round" stroke-miterlimit="10" x1="669.633" y1="768.519" x2="669.633" y2="524.902"/>
	
		<line fill="none" stroke="#E5E5E5" stroke-width="0.5835" stroke-linejoin="round" stroke-miterlimit="10" x1="693.554" y1="768.519" x2="693.554" y2="524.902"/>
	
		<line fill="none" stroke="#E5E5E5" stroke-width="0.5835" stroke-linejoin="round" stroke-miterlimit="10" x1="717.476" y1="768.519" x2="717.476" y2="524.902"/>
	
		<line fill="none" stroke="#E5E5E5" stroke-width="0.5835" stroke-linejoin="round" stroke-miterlimit="10" x1="741.398" y1="768.519" x2="741.398" y2="524.902"/>
	
		<line fill="none" stroke="#E5E5E5" stroke-width="0.5835" stroke-linejoin="round" stroke-miterlimit="10" x1="765.319" y1="768.519" x2="765.319" y2="524.902"/>
	<rect x="84.718" y="535.976" fill="#333333" width="21.534" height="221.471"/>
	<rect x="108.64" y="580.046" fill="#333333" width="21.534" height="177.4"/>
	<rect x="132.562" y="589.966" fill="#333333" width="21.534" height="167.48"/>
	<rect x="156.484" y="608.704" fill="#333333" width="21.534" height="148.742"/>
	<rect x="180.406" y="612.002" fill="#333333" width="21.533" height="145.444"/>
	<rect x="204.328" y="618.609" fill="#333333" width="21.534" height="138.837"/>
	<rect x="228.249" y="639.548" fill="#333333" width="21.534" height="117.898"/>
	<rect x="252.171" y="642.858" fill="#333333" width="21.534" height="114.588"/>
	<rect x="276.094" y="651.677" fill="#333333" width="21.533" height="105.77"/>
	<rect x="300.015" y="657.188" fill="#333333" width="21.535" height="100.259"/>
	<rect x="323.938" y="660.483" fill="#333333" width="21.533" height="96.963"/>
	<rect x="347.874" y="663.793" fill="#333333" width="21.533" height="93.653"/>
	<rect x="371.795" y="674.812" fill="#333333" width="21.534" height="82.635"/>
	<rect x="395.717" y="675.91" fill="#333333" width="21.534" height="81.536"/>
	<rect x="419.639" y="678.109" fill="#333333" width="21.534" height="79.337"/>
	<rect x="443.561" y="685.829" fill="#333333" width="21.535" height="71.617"/>
	<rect x="467.482" y="685.829" fill="#333333" width="21.532" height="71.617"/>
	<rect x="491.405" y="688.028" fill="#333333" width="21.532" height="69.418"/>
	<rect x="515.327" y="690.239" fill="#333333" width="21.533" height="67.207"/>
	<rect x="539.248" y="696.847" fill="#333333" width="21.535" height="60.6"/>
	<rect x="563.171" y="696.847" fill="#333333" width="21.534" height="60.6"/>
	<rect x="587.092" y="697.947" fill="#333333" width="21.534" height="59.499"/>
	<rect x="611.014" y="701.257" fill="#333333" width="21.535" height="56.189"/>
	<rect x="634.937" y="718.884" fill="#333333" width="21.533" height="38.562"/>
	<rect x="658.857" y="754.136" fill="#333333" width="21.534" height="3.311"/>
	<rect x="682.794" y="756.347" fill="#333333" width="21.533" height="1.1"/>
	<rect x="706.717" y="756.347" fill="#333333" width="21.532" height="1.1"/>
	<rect x="730.638" y="756.347" fill="#333333" width="21.534" height="1.1"/>
	<rect x="754.56" y="756.347" fill="#333333" width="21.535" height="1.1"/>
	
		<rect x="81.122" y="524.902" fill="none" stroke="#7F7F7F" stroke-width="1.4383" stroke-linecap="round" stroke-linejoin="round" stroke-miterlimit="10" width="698.554" height="243.616"/>
	<rect x="81.122" y="524.902" fill="none" width="698.554" height="243.616"/>
	<text transform="matrix(1 0 0 1 63.9722 762.3174)" font-family="'Helvetica'" font-size="13.5689">0</text>
	<text transform="matrix(1 0 0 1 56.4272 707.2295)" font-family="'Helvetica'" font-size="13.5689">50</text>
	<text transform="matrix(1 0 0 1 48.8823 652.1377)" font-family="'Helvetica'" font-size="13.5689">100</text>
	<text transform="matrix(1 0 0 1 48.8823 597.0342)" font-family="'Helvetica'" font-size="13.5689">150</text>
	<text transform="matrix(1 0 0 1 48.8823 541.9463)" font-family="'Helvetica'" font-size="13.5689">200</text>
	
		<line fill="none" stroke="#000000" stroke-width="1.4383" stroke-linejoin="round" stroke-miterlimit="10" x1="75.355" y1="757.446" x2="81.122" y2="757.446"/>
	
		<line fill="none" stroke="#000000" stroke-width="1.4383" stroke-linejoin="round" stroke-miterlimit="10" x1="75.355" y1="702.357" x2="81.122" y2="702.357"/>
	
		<line fill="none" stroke="#000000" stroke-width="1.4383" stroke-linejoin="round" stroke-miterlimit="10" x1="75.355" y1="647.269" x2="81.122" y2="647.269"/>
	
		<line fill="none" stroke="#000000" stroke-width="1.4383" stroke-linejoin="round" stroke-miterlimit="10" x1="75.355" y1="592.164" x2="81.122" y2="592.164"/>
	
		<line fill="none" stroke="#000000" stroke-width="1.4383" stroke-linejoin="round" stroke-miterlimit="10" x1="75.355" y1="537.074" x2="81.122" y2="537.074"/>
	
		<line fill="none" stroke="#000000" stroke-width="1.4383" stroke-linejoin="round" stroke-miterlimit="10" x1="95.477" y1="774.285" x2="95.477" y2="768.519"/>
	
		<line fill="none" stroke="#000000" stroke-width="1.4383" stroke-linejoin="round" stroke-miterlimit="10" x1="119.4" y1="774.285" x2="119.4" y2="768.519"/>
	
		<line fill="none" stroke="#000000" stroke-width="1.4383" stroke-linejoin="round" stroke-miterlimit="10" x1="143.322" y1="774.285" x2="143.322" y2="768.519"/>
	
		<line fill="none" stroke="#000000" stroke-width="1.4383" stroke-linejoin="round" stroke-miterlimit="10" x1="167.244" y1="774.285" x2="167.244" y2="768.519"/>
	
		<line fill="none" stroke="#000000" stroke-width="1.4383" stroke-linejoin="round" stroke-miterlimit="10" x1="191.165" y1="774.285" x2="191.165" y2="768.519"/>
	
		<line fill="none" stroke="#000000" stroke-width="1.4383" stroke-linejoin="round" stroke-miterlimit="10" x1="215.087" y1="774.285" x2="215.087" y2="768.519"/>
	
		<line fill="none" stroke="#000000" stroke-width="1.4383" stroke-linejoin="round" stroke-miterlimit="10" x1="239.023" y1="774.285" x2="239.023" y2="768.519"/>
	
		<line fill="none" stroke="#000000" stroke-width="1.4383" stroke-linejoin="round" stroke-miterlimit="10" x1="262.945" y1="774.285" x2="262.945" y2="768.519"/>
	
		<line fill="none" stroke="#000000" stroke-width="1.4383" stroke-linejoin="round" stroke-miterlimit="10" x1="286.867" y1="774.285" x2="286.867" y2="768.519"/>
	
		<line fill="none" stroke="#000000" stroke-width="1.4383" stroke-linejoin="round" stroke-miterlimit="10" x1="310.79" y1="774.285" x2="310.79" y2="768.519"/>
	
		<line fill="none" stroke="#000000" stroke-width="1.4383" stroke-linejoin="round" stroke-miterlimit="10" x1="334.711" y1="774.285" x2="334.711" y2="768.519"/>
	
		<line fill="none" stroke="#000000" stroke-width="1.4383" stroke-linejoin="round" stroke-miterlimit="10" x1="358.633" y1="774.285" x2="358.633" y2="768.519"/>
	
		<line fill="none" stroke="#000000" stroke-width="1.4383" stroke-linejoin="round" stroke-miterlimit="10" x1="382.555" y1="774.285" x2="382.555" y2="768.519"/>
	
		<line fill="none" stroke="#000000" stroke-width="1.4383" stroke-linejoin="round" stroke-miterlimit="10" x1="406.477" y1="774.285" x2="406.477" y2="768.519"/>
	
		<line fill="none" stroke="#000000" stroke-width="1.4383" stroke-linejoin="round" stroke-miterlimit="10" x1="430.399" y1="774.285" x2="430.399" y2="768.519"/>
	
		<line fill="none" stroke="#000000" stroke-width="1.4383" stroke-linejoin="round" stroke-miterlimit="10" x1="454.321" y1="774.285" x2="454.321" y2="768.519"/>
	
		<line fill="none" stroke="#000000" stroke-width="1.4383" stroke-linejoin="round" stroke-miterlimit="10" x1="478.243" y1="774.285" x2="478.243" y2="768.519"/>
	
		<line fill="none" stroke="#000000" stroke-width="1.4383" stroke-linejoin="round" stroke-miterlimit="10" x1="502.164" y1="774.285" x2="502.164" y2="768.519"/>
	
		<line fill="none" stroke="#000000" stroke-width="1.4383" stroke-linejoin="round" stroke-miterlimit="10" x1="526.087" y1="774.285" x2="526.087" y2="768.519"/>
	
		<line fill="none" stroke="#000000" stroke-width="1.4383" stroke-linejoin="round" stroke-miterlimit="10" x1="550.009" y1="774.285" x2="550.009" y2="768.519"/>
	
		<line fill="none" stroke="#000000" stroke-width="1.4383" stroke-linejoin="round" stroke-miterlimit="10" x1="573.944" y1="774.285" x2="573.944" y2="768.519"/>
	
		<line fill="none" stroke="#000000" stroke-width="1.4383" stroke-linejoin="round" stroke-miterlimit="10" x1="597.867" y1="774.285" x2="597.867" y2="768.519"/>
	
		<line fill="none" stroke="#000000" stroke-width="1.4383" stroke-linejoin="round" stroke-miterlimit="10" x1="621.789" y1="774.285" x2="621.789" y2="768.519"/>
	
		<line fill="none" stroke="#000000" stroke-width="1.4383" stroke-linejoin="round" stroke-miterlimit="10" x1="645.71" y1="774.285" x2="645.71" y2="768.519"/>
	
		<line fill="none" stroke="#000000" stroke-width="1.4383" stroke-linejoin="round" stroke-miterlimit="10" x1="669.633" y1="774.285" x2="669.633" y2="768.519"/>
	
		<line fill="none" stroke="#000000" stroke-width="1.4383" stroke-linejoin="round" stroke-miterlimit="10" x1="693.554" y1="774.285" x2="693.554" y2="768.519"/>
	
		<line fill="none" stroke="#000000" stroke-width="1.4383" stroke-linejoin="round" stroke-miterlimit="10" x1="717.476" y1="774.285" x2="717.476" y2="768.519"/>
	
		<line fill="none" stroke="#000000" stroke-width="1.4383" stroke-linejoin="round" stroke-miterlimit="10" x1="741.398" y1="774.285" x2="741.398" y2="768.519"/>
	
		<line fill="none" stroke="#000000" stroke-width="1.4383" stroke-linejoin="round" stroke-miterlimit="10" x1="765.319" y1="774.285" x2="765.319" y2="768.519"/>
	<text transform="matrix(0.7071 0.7071 -0.7071 0.7071 88.6724 785.1133)"><tspan x="0" y="0" fill="#E20A0A" font-family="'Helvetica'" font-size="13.567">Whole b</tspan><tspan x="49.77" y="0" fill="#E20A0A" font-family="'Helvetica'" font-size="13.567">r</tspan><tspan x="54.152" y="0" fill="#E20A0A" font-family="'Helvetica'" font-size="13.567">ain adult</tspan></text>
	<text transform="matrix(0.7071 0.7071 -0.7071 0.7071 112.5947 785.1123)"><tspan x="0" y="0" fill="#E20A0A" font-family="'Helvetica'" font-size="13.567">Ol</tspan><tspan x="13.568" y="0" fill="#E20A0A" font-family="'Helvetica'" font-size="13.567">f</tspan><tspan x="16.943" y="0" fill="#E20A0A" font-family="'Helvetica'" font-size="13.567">acto</tspan><tspan x="42.587" y="0" fill="#E20A0A" font-family="'Helvetica'" font-size="13.567">r</tspan><tspan x="47.5" y="0.001" fill="#E20A0A" font-family="'Helvetica'" font-size="13.567">y</tspan><tspan x="54.281" y="0" fill="#E20A0A" font-family="'Helvetica'" font-size="13.567"> b</tspan><tspan x="65.054" y="0" fill="#E20A0A" font-family="'Helvetica'" font-size="13.567">ulb</tspan></text>
	<text transform="matrix(0.7071 0.7071 -0.7071 0.7071 136.5312 785.1113)"><tspan x="0" y="0" fill="#E20A0A" font-family="'Helvetica'" font-size="13.567">Co</tspan><tspan x="17.342" y="0" fill="#E20A0A" font-family="'Helvetica'" font-size="13.567">r</tspan><tspan x="22.388" y="0" fill="#E20A0A" font-family="'Helvetica'" font-size="13.567">t</tspan><tspan x="26.159" y="0" fill="#E20A0A" font-family="'Helvetica'" font-size="13.567">e</tspan><tspan x="33.298" y="0" fill="#E20A0A" font-family="'Helvetica'" font-size="13.567">x Whole</tspan></text>
	<text transform="matrix(0.7071 0.7071 -0.7071 0.7071 160.4536 785.1133)"><tspan x="0" y="0" font-family="'Helvetica'" font-size="13.567">Hea</tspan><tspan x="24.89" y="0" font-family="'Helvetica'" font-size="13.567">r</tspan><tspan x="29.936" y="0" font-family="'Helvetica'" font-size="13.567">t E14</tspan></text>
	<text transform="matrix(0.7071 0.7071 -0.7071 0.7071 184.376 785.1123)" font-family="'Helvetica'" font-size="13.567">Limb</text>
	<text transform="matrix(0.7071 0.7071 -0.7071 0.7071 208.2979 785.1123)" font-family="'Helvetica'" font-size="13.567">Placenta</text>
	<text transform="matrix(0.7071 0.7071 -0.7071 0.7071 232.2188 785.1113)"><tspan x="0" y="0" font-family="'Helvetica'" font-size="13.567" letter-spacing="-1">T</tspan><tspan x="6.673" y="0" font-family="'Helvetica'" font-size="13.567">estis</tspan></text>
	<text transform="matrix(0.7071 0.7071 -0.7071 0.7071 256.1401 785.1104)"><tspan x="0" y="0" fill="#E20A0A" font-family="'Helvetica'" font-size="13.567">Whole b</tspan><tspan x="49.771" y="0" fill="#E20A0A" font-family="'Helvetica'" font-size="13.567">r</tspan><tspan x="54.154" y="0" fill="#E20A0A" font-family="'Helvetica'" font-size="13.567">ain E14</tspan></text>
	<text transform="matrix(0.7071 0.7071 -0.7071 0.7071 280.0645 785.1113)" font-family="'Helvetica'" font-size="13.567">Small intestine</text>
	
		<text transform="matrix(0.7071 0.7071 -0.7071 0.7071 303.9883 785.1133)" fill="#E20A0A" font-family="'Helvetica'" font-size="13.567">NPC</text>
	<text transform="matrix(0.7071 0.7071 -0.7071 0.7071 327.9092 785.1123)" font-family="'Helvetica'" font-size="13.567">BMDM</text>
	<text transform="matrix(0.7071 0.7071 -0.7071 0.7071 351.8301 785.1113)" font-family="'Helvetica'" font-size="13.567">mESC</text>
	<text transform="matrix(0.7071 0.7071 -0.7071 0.7071 375.752 785.1133)"><tspan x="0" y="0" font-family="'Helvetica'" font-size="13.567">T</tspan><tspan x="8.286" y="0" font-family="'Helvetica'" font-size="13.567">h</tspan><tspan x="15.425" y="0" font-family="'Helvetica'" font-size="13.567">y</tspan><tspan x="22.209" y="0" font-family="'Helvetica'" font-size="13.567">m</tspan><tspan x="33.375" y="0" font-family="'Helvetica'" font-size="13.567">us</tspan></text>
	<text transform="matrix(0.7071 0.7071 -0.7071 0.7071 399.6768 785.1123)"><tspan x="0" y="0" font-family="'Helvetica'" font-size="13.567">Br</tspan><tspan x="13.568" y="0" font-family="'Helvetica'" font-size="13.567">o</tspan><tspan x="20.909" y="0" font-family="'Helvetica'" font-size="13.567">wn</tspan><tspan x="38.253" y="0" font-family="'Helvetica'" font-size="13.567"> f</tspan><tspan x="45.003" y="0" font-family="'Helvetica'" font-size="13.567">at</tspan></text>
	<text transform="matrix(0.7071 0.7071 -0.7071 0.7071 423.5977 785.1133)" font-family="'Helvetica'" font-size="13.567">Lung</text>
	<text transform="matrix(0.7071 0.7071 -0.7071 0.7071 447.5342 785.1123)" font-family="'Helvetica'" font-size="13.567">MEF</text>
	<text transform="matrix(0.7071 0.7071 -0.7071 0.7071 471.458 785.1123)" font-family="'Helvetica'" font-size="13.567">MLF</text>
	<text transform="matrix(0.7071 0.7071 -0.7071 0.7071 495.3779 785.1123)"><tspan x="0" y="0" font-family="'Helvetica'" font-size="13.567">S</tspan><tspan x="9.049" y="0" font-family="'Helvetica'" font-size="13.567">k</tspan><tspan x="15.559" y="0" font-family="'Helvetica'" font-size="13.567">eletal</tspan><tspan x="47.995" y="0" font-family="'Helvetica'" font-size="13.567"> m</tspan><tspan x="62.792" y="0" font-family="'Helvetica'" font-size="13.567">uscle</tspan></text>
	
		<text transform="matrix(0.7071 0.7071 -0.7071 0.7071 519.2988 785.1113)" fill="#E20A0A" font-family="'Helvetica'" font-size="13.567">Cerebellum</text>
	<text transform="matrix(0.7071 0.7071 -0.7071 0.7071 543.2217 785.1123)"><tspan x="0" y="0" font-family="'Helvetica'" font-size="13.567">Li</tspan><tspan x="10.56" y="0" font-family="'Helvetica'" font-size="13.567">v</tspan><tspan x="17.004" y="0" font-family="'Helvetica'" font-size="13.567">er</tspan></text>
	<text transform="matrix(0.7071 0.7071 -0.7071 0.7071 567.1455 785.1123)"><tspan x="0" y="0" font-family="'Helvetica'" font-size="13.567">Bone marr</tspan><tspan x="63.337" y="0" font-family="'Helvetica'" font-size="13.567">o</tspan><tspan x="70.679" y="0" font-family="'Helvetica'" font-size="13.567">w</tspan></text>
	<text transform="matrix(0.7071 0.7071 -0.7071 0.7071 591.0674 785.1123)"><tspan x="0" y="0" font-family="'Helvetica'" font-size="13.567">Hea</tspan><tspan x="24.888" y="0" font-family="'Helvetica'" font-size="13.567">r</tspan><tspan x="29.935" y="0" font-family="'Helvetica'" font-size="13.567">t Adult</tspan></text>
	<text transform="matrix(0.7071 0.7071 -0.7071 0.7071 614.9893 785.1123)"><tspan x="0" y="0" font-family="'Helvetica'" font-size="13.567">Kidn</tspan><tspan x="27.152" y="0" font-family="'Helvetica'" font-size="13.567">e</tspan><tspan x="34.427" y="0" font-family="'Helvetica'" font-size="13.567">y</tspan></text>
	<text transform="matrix(0.7071 0.7071 -0.7071 0.7071 638.9092 785.1123)" font-family="'Helvetica'" font-size="13.567">Spleen</text>
	<text transform="matrix(0.7071 0.7071 -0.7071 0.7071 662.833 785.1123)" font-family="'Helvetica'" font-size="13.567">NIH3T3</text>
	<text transform="matrix(0.7071 0.7071 -0.7071 0.7071 686.7549 785.1123)"><tspan x="0" y="0" font-family="'Helvetica'" font-size="13.567">Whole b</tspan><tspan x="49.768" y="0" font-family="'Helvetica'" font-size="13.567">r</tspan><tspan x="54.152" y="0" font-family="'Helvetica'" font-size="13.567">ain E18</tspan></text>
	<text transform="matrix(0.7071 0.7071 -0.7071 0.7071 710.6787 785.1143)"><tspan x="0" y="0" font-family="'Helvetica'" font-size="13.567">Genital</tspan><tspan x="42.984" y="0" font-family="'Helvetica'" font-size="13.567"> f</tspan><tspan x="49.738" y="0" font-family="'Helvetica'" font-size="13.567">at pad</tspan></text>
	<text transform="matrix(0.7071 0.7071 -0.7071 0.7071 734.5986 785.1123)" font-family="'Helvetica'" font-size="13.567">Large intestine</text>
	<text transform="matrix(0.7071 0.7071 -0.7071 0.7071 758.5215 785.1113)"><tspan x="0" y="0" fill="#E20A0A" font-family="'Helvetica'" font-size="13.567">Cereb</tspan><tspan x="36.952" y="0" fill="#E20A0A" font-family="'Helvetica'" font-size="13.567">r</tspan><tspan x="41.66" y="0" fill="#E20A0A" font-family="'Helvetica'" font-size="13.567">um</tspan></text>
	<text transform="matrix(1 0 0 1 409.1357 861.1396)" font-family="'Helvetica'" font-size="15.434">Tissue</text>
	<text transform="matrix(0 -1 1 0 29.0728 744.5068)"><tspan x="0" y="0" font-family="'Helvetica'" font-size="15.434">Count of significant lncRNAs</tspan><tspan x="66.914" y="18.521" font-family="'Helvetica'" font-size="15.434">in Tissue</tspan></text>
</g>
<text transform="matrix(1 0 0 1 179.2354 21.874)" font-family="'MyriadPro-Regular'" font-size="16.9775">A</text>
<text transform="matrix(1 0 0 1 8.5928 515.5244)" font-family="'MyriadPro-Regular'" font-size="16.9775">B</text>
</svg>
